<svg width="97" height="32" viewBox="0 0 97 32" fill="none" xmlns="http://www.w3.org/2000/svg"><rect x="1.24609" y="0.5" width="95" height="31" rx="4.5" fill="#0C0D10"></rect><rect x="1.24609" y="0.5" width="95" height="31" rx="4.5" stroke="#A6A6A6"></rect><path d="M65.9668 15.3608V17.1936H64.818V18.3956H65.9668V22.4795C65.9668 23.8741 66.5977 24.4319 68.1848 24.4319C68.4637 24.4319 68.7293 24.3987 68.9617 24.3588V23.1702C68.7625 23.1901 68.6363 23.2034 68.4172 23.2034C67.7067 23.2034 67.3945 22.8713 67.3945 22.1143V18.3956H68.9617V17.1936H67.3945V15.3608H65.9668Z" fill="white"></path><path d="M73.0048 24.5315C75.1165 24.5315 76.4115 23.117 76.4115 20.7729C76.4115 18.442 75.1099 17.0209 73.0048 17.0209C70.8931 17.0209 69.5915 18.442 69.5915 20.7729C69.5915 23.117 70.8865 24.5315 73.0048 24.5315ZM73.0048 23.2631C71.763 23.2631 71.0658 22.3534 71.0658 20.7729C71.0658 19.2057 71.763 18.2893 73.0048 18.2893C74.24 18.2893 74.9439 19.2057 74.9439 20.7729C74.9439 22.3467 74.24 23.2631 73.0048 23.2631Z" fill="white"></path><path d="M77.5194 24.392H78.9471V20.1221C78.9471 19.1061 79.7108 18.4221 80.7932 18.4221C81.0455 18.4221 81.4705 18.4686 81.5901 18.5084V17.1006C81.4373 17.0608 81.1651 17.0409 80.9526 17.0409C80.0096 17.0409 79.2061 17.5588 79.0002 18.2694H78.894V17.1604H77.5194V24.392Z" fill="white"></path><path d="M85.1351 18.2362C86.191 18.2362 86.8816 18.9733 86.9148 20.1088H83.2625C83.3421 18.9799 84.0793 18.2362 85.1351 18.2362ZM86.9082 22.4397C86.6425 23.0041 86.0515 23.3163 85.1882 23.3163C84.046 23.3163 83.3089 22.5127 83.2625 21.2444V21.1647H88.3691V20.6666C88.3691 18.3956 87.1539 17.0209 85.1418 17.0209C83.1031 17.0209 81.8082 18.4885 81.8082 20.7995C81.8082 23.1104 83.0765 24.5315 85.1484 24.5315C86.8019 24.5315 87.9574 23.7346 88.2828 22.4397H86.9082Z" fill="white"></path><path d="M56.6039 21.7215C56.7141 23.4973 58.1939 24.6329 60.3964 24.6329C62.7503 24.6329 64.2232 23.4422 64.2232 21.5426C64.2232 20.049 63.3835 19.223 61.3462 18.7481L60.2518 18.4797C58.9579 18.1769 58.4348 17.7708 58.4348 17.0618C58.4348 16.1671 59.2469 15.582 60.4652 15.582C61.6215 15.582 62.4199 16.1533 62.5645 17.0687H64.0649C63.9754 15.3962 62.5025 14.2192 60.4859 14.2192C58.3178 14.2192 56.8724 15.3962 56.8724 17.1651C56.8724 18.6242 57.6914 19.4915 59.4878 19.9113L60.768 20.2211C62.0827 20.5308 62.6608 20.985 62.6608 21.7422C62.6608 22.6232 61.7523 23.2633 60.5134 23.2633C59.185 23.2633 58.2627 22.6644 58.1319 21.7215H56.6039Z" fill="white"></path><path d="M41.8141 17.0409C40.8313 17.0409 39.9813 17.5323 39.543 18.3557H39.4367V17.1604H38.0621V26.7959H39.4899V23.2963H39.6027C39.9813 24.06 40.7981 24.5116 41.8274 24.5116C43.6535 24.5116 44.8156 23.0706 44.8156 20.7729C44.8156 18.4752 43.6535 17.0409 41.8141 17.0409ZM41.409 23.2299C40.2137 23.2299 39.4633 22.287 39.4633 20.7795C39.4633 19.2655 40.2137 18.3225 41.4156 18.3225C42.6242 18.3225 43.3481 19.2456 43.3481 20.7729C43.3481 22.3069 42.6242 23.2299 41.409 23.2299Z" fill="white"></path><path d="M49.8115 17.0409C48.8287 17.0409 47.9787 17.5323 47.5404 18.3557H47.4342V17.1604H46.0596V26.7959H47.4873V23.2963H47.6002C47.9787 24.06 48.7955 24.5116 49.8248 24.5116C51.651 24.5116 52.8131 23.0706 52.8131 20.7729C52.8131 18.4752 51.651 17.0409 49.8115 17.0409ZM49.4064 23.2299C48.2111 23.2299 47.4607 22.287 47.4607 20.7795C47.4607 19.2655 48.2111 18.3225 49.4131 18.3225C50.6217 18.3225 51.3455 19.2456 51.3455 20.7729C51.3455 22.3069 50.6217 23.2299 49.4064 23.2299Z" fill="white"></path><path d="M35.5005 24.392H37.1386L33.5527 14.4601H31.8939L28.308 24.392H29.891L30.8064 21.7559H34.592L35.5005 24.392ZM32.6442 16.2634H32.7612L34.1997 20.4619H31.1988L32.6442 16.2634Z" fill="white"></path><path d="M29.267 6.96877V11.76H30.9969C32.4246 11.76 33.2513 10.8801 33.2513 9.34944C33.2513 7.84202 32.4179 6.96877 30.9969 6.96877H29.267ZM30.0107 7.64612H30.9138C31.9066 7.64612 32.4943 8.27698 32.4943 9.3594C32.4943 10.4584 31.9166 11.0826 30.9138 11.0826H30.0107V7.64612Z" fill="white"></path><path d="M35.7834 11.8297C36.8393 11.8297 37.4867 11.1225 37.4867 9.95041C37.4867 8.78499 36.836 8.07444 35.7834 8.07444C34.7276 8.07444 34.0768 8.78499 34.0768 9.95041C34.0768 11.1225 34.7242 11.8297 35.7834 11.8297ZM35.7834 11.1955C35.1625 11.1955 34.8139 10.7406 34.8139 9.95041C34.8139 9.16682 35.1625 8.70862 35.7834 8.70862C36.401 8.70862 36.7529 9.16682 36.7529 9.95041C36.7529 10.7373 36.401 11.1955 35.7834 11.1955Z" fill="white"></path><path d="M43.0004 8.14416H42.2866L41.6424 10.9033H41.586L40.8422 8.14416H40.1583L39.4145 10.9033H39.3614L38.7139 8.14416H37.9901L38.9862 11.76H39.72L40.4637 9.09709H40.5202L41.2672 11.76H42.0077L43.0004 8.14416Z" fill="white"></path><path d="M43.8226 11.76H44.5364V9.64495C44.5364 9.08049 44.8718 8.72854 45.3997 8.72854C45.9276 8.72854 46.18 9.01741 46.18 9.59846V11.76H46.8938V9.41916C46.8938 8.5592 46.4489 8.07444 45.6421 8.07444C45.0976 8.07444 44.739 8.31682 44.563 8.71858H44.5099V8.14416H43.8226V11.76Z" fill="white"></path><path d="M48.0181 11.76H48.732V6.73303H48.0181V11.76Z" fill="white"></path><path d="M51.4168 11.8297C52.4726 11.8297 53.1201 11.1225 53.1201 9.95041C53.1201 8.78499 52.4693 8.07444 51.4168 8.07444C50.3609 8.07444 49.7101 8.78499 49.7101 9.95041C49.7101 11.1225 50.3576 11.8297 51.4168 11.8297ZM51.4168 11.1955C50.7959 11.1955 50.4472 10.7406 50.4472 9.95041C50.4472 9.16682 50.7959 8.70862 51.4168 8.70862C52.0344 8.70862 52.3863 9.16682 52.3863 9.95041C52.3863 10.7373 52.0344 11.1955 51.4168 11.1955Z" fill="white"></path><path d="M55.2471 11.2188C54.8586 11.2188 54.5764 11.0295 54.5764 10.7041C54.5764 10.3854 54.8022 10.216 55.3002 10.1828L56.1834 10.1264V10.4285C56.1834 10.8768 55.785 11.2188 55.2471 11.2188ZM55.0645 11.8198C55.5393 11.8198 55.9344 11.6139 56.1502 11.252H56.2067V11.76H56.894V9.28967C56.894 8.526 56.3826 8.07444 55.4762 8.07444C54.6561 8.07444 54.0717 8.47288 53.9986 9.09377H54.6893C54.769 8.83811 55.0445 8.69202 55.443 8.69202C55.9311 8.69202 56.1834 8.90784 56.1834 9.28967V9.60178L55.2039 9.65823C54.344 9.71135 53.8592 10.0865 53.8592 10.7373C53.8592 11.3981 54.3672 11.8198 55.0645 11.8198Z" fill="white"></path><path d="M59.3165 11.8198C59.8145 11.8198 60.2362 11.584 60.452 11.1889H60.5085V11.76H61.1924V6.73303H60.4786V8.71858H60.4254C60.2295 8.32014 59.8112 8.0844 59.3165 8.0844C58.4034 8.0844 57.8157 8.80823 57.8157 9.95041C57.8157 11.0959 58.3967 11.8198 59.3165 11.8198ZM59.519 8.72522C60.1167 8.72522 60.4918 9.20002 60.4918 9.95374C60.4918 10.7108 60.12 11.1789 59.519 11.1789C58.9147 11.1789 58.5528 10.7174 58.5528 9.95041C58.5528 9.19006 58.918 8.72522 59.519 8.72522Z" fill="white"></path><path d="M65.8216 11.8297C66.8775 11.8297 67.5249 11.1225 67.5249 9.95041C67.5249 8.78499 66.8742 8.07444 65.8216 8.07444C64.7658 8.07444 64.115 8.78499 64.115 9.95041C64.115 11.1225 64.7624 11.8297 65.8216 11.8297ZM65.8216 11.1955C65.2007 11.1955 64.8521 10.7406 64.8521 9.95041C64.8521 9.16682 65.2007 8.70862 65.8216 8.70862C66.4392 8.70862 66.7911 9.16682 66.7911 9.95041C66.7911 10.7373 66.4392 11.1955 65.8216 11.1955Z" fill="white"></path><path d="M68.4699 11.76H69.1838V9.64495C69.1838 9.08049 69.5191 8.72854 70.047 8.72854C70.575 8.72854 70.8273 9.01741 70.8273 9.59846V11.76H71.5412V9.41916C71.5412 8.5592 71.0963 8.07444 70.2894 8.07444C69.7449 8.07444 69.3863 8.31682 69.2103 8.71858H69.1572V8.14416H68.4699V11.76Z" fill="white"></path><path d="M74.829 7.24436V8.16077H74.2545V8.76174H74.829V10.8037C74.829 11.501 75.1444 11.7799 75.9379 11.7799C76.0774 11.7799 76.2102 11.7633 76.3264 11.7434V11.149C76.2268 11.159 76.1637 11.1656 76.0542 11.1656C75.6989 11.1656 75.5428 10.9996 75.5428 10.6211V8.76174H76.3264V8.16077H75.5428V7.24436H74.829Z" fill="white"></path><path d="M77.2847 11.76H77.9985V9.64827C77.9985 9.10041 78.3239 8.73186 78.9083 8.73186C79.413 8.73186 79.6819 9.02405 79.6819 9.60178V11.76H80.3958V9.42581C80.3958 8.56584 79.921 8.07776 79.1507 8.07776C78.6061 8.07776 78.2243 8.32014 78.0483 8.72522H77.9919V6.73303H77.2847V11.76Z" fill="white"></path><path d="M82.971 8.68206C83.499 8.68206 83.8443 9.05061 83.8609 9.61838H82.0347C82.0745 9.05393 82.4431 8.68206 82.971 8.68206ZM83.8576 10.7838C83.7247 11.066 83.4292 11.2221 82.9976 11.2221C82.4265 11.2221 82.0579 10.8203 82.0347 10.1862V10.1463H84.588V9.89729C84.588 8.76174 83.9804 8.07444 82.9743 8.07444C81.955 8.07444 81.3076 8.80823 81.3076 9.9637C81.3076 11.1192 81.9417 11.8297 82.9777 11.8297C83.8044 11.8297 84.3822 11.4313 84.5449 10.7838H83.8576Z" fill="white"></path><path d="M20.5612 16.2406C20.5786 14.8958 21.3008 13.6233 22.4465 12.919C21.7237 11.8867 20.5131 11.2322 19.2536 11.1928C17.9102 11.0518 16.6078 11.9967 15.9232 11.9967C15.2254 11.9967 14.1714 11.2068 13.0364 11.2302C11.557 11.278 10.1779 12.1191 9.4581 13.4125C7.9109 16.0912 9.06497 20.028 10.5471 22.1933C11.2886 23.2536 12.1552 24.438 13.2892 24.396C14.3988 24.3499 14.8132 23.6884 16.1527 23.6884C17.4797 23.6884 17.8685 24.396 19.0255 24.3693C20.2162 24.3499 20.9664 23.3043 21.6819 22.2339C22.2147 21.4785 22.6246 20.6435 22.8966 19.7599C21.4973 19.1681 20.5629 17.7599 20.5612 16.2406Z" fill="white"></path><path d="M18.3759 9.76881C19.0251 8.98945 19.345 7.9877 19.2675 6.97632C18.2757 7.08049 17.3595 7.55454 16.7015 8.30401C16.058 9.03627 15.7232 10.0204 15.7865 10.9931C16.7787 11.0033 17.7542 10.5421 18.3759 9.76881Z" fill="white"></path></svg>