<svg width="25" height="24" viewBox="0 0 25 24" fill="none" xmlns="http://www.w3.org/2000/svg"><path fill-rule="evenodd" clip-rule="evenodd" d="M13.437 2H10.83v20h2.607c4.434 0 7.822-4.608 7.822-10S17.87 2 13.437 2Z" fill="#E6B900"></path><path fill-rule="evenodd" clip-rule="evenodd" d="M11.08 2C6.646 2 3.26 6.608 3.26 12s3.387 10 7.821 10c4.434 0 7.822-4.608 7.822-10S15.514 2 11.08 2Z" fill="#FFCF08"></path><path d="M10.886 7.225a.208.208 0 0 1 .387 0l1.014 2.558a.209.209 0 0 0 .161.13l2.433.384c.162.025.233.22.127.345l-1.781 2.1a.212.212 0 0 0-.048.168l.414 2.858a.209.209 0 0 1-.314.21l-2.091-1.28a.207.207 0 0 0-.217 0l-2.091 1.28a.209.209 0 0 1-.315-.21l.415-2.858a.212.212 0 0 0-.048-.168l-1.781-2.1a.211.211 0 0 1 .126-.345l2.434-.384a.209.209 0 0 0 .161-.13l1.014-2.558Z" fill="#CCA500"></path></svg>