<svg width="22" height="20" viewBox="0 0 22 20" fill="none" xmlns="http://www.w3.org/2000/svg"><path d="m10.993 3.174-.763.647.763.9.763-.9-.763-.647Zm-8.726 7.488.792-.61-.792.61Zm17.452 0-.792-.61.792.61Zm-8.696 8.336-.667.746a1 1 0 0 0 1.333 0L11.023 19Zm.733-16.47C9.464-.175 5.502-1 2.504 1.584L3.81 3.1c2.01-1.733 4.715-1.29 6.42.722l1.526-1.293Zm-9.252-.944c-2.903 2.503-3.323 6.711-1.03 9.688l1.585-1.22c-1.64-2.13-1.354-5.138.75-6.953L2.505 1.584Zm18.007 9.688c2.285-2.965 1.93-7.207-1.04-9.697l-1.285 1.533c2.125 1.781 2.39 4.803.74 6.944l1.585 1.22Zm-1.04-9.697c-3.03-2.541-6.941-1.76-9.24.953l1.525 1.293c1.697-2.002 4.367-2.443 6.43-.713l1.285-1.533ZM1.475 11.272c.88 1.142 2.73 2.923 4.498 4.547 1.788 1.644 3.585 3.212 4.383 3.925l1.333-1.491c-.824-.736-2.587-2.275-4.363-3.906-1.796-1.651-3.512-3.315-4.267-4.295l-1.584 1.22Zm10.214 8.472c.804-.718 2.58-2.282 4.357-3.928 1.753-1.625 3.587-3.404 4.465-4.544l-1.584-1.22c-.757.983-2.46 2.647-4.24 4.297-1.759 1.63-3.513 3.173-4.33 3.904l1.332 1.491Z" fill="#1D1D1D"></path></svg>