<svg width="108" height="32" viewBox="0 0 108 32" fill="none" xmlns="http://www.w3.org/2000/svg"><rect x="0.5" y="0.5" width="107" height="31" rx="4.5" fill="black"></rect><rect x="0.5" y="0.5" width="107" height="31" rx="4.5" stroke="#A6A6A6"></rect><path d="M85.5477 24H87.0405V13.9987H85.5477V24ZM98.9933 17.6016L97.2821 21.9375H97.2309L95.4549 17.6016H93.8469L96.5109 23.6616L94.9917 27.0328H96.5485L100.653 17.6016H98.9933ZM90.5269 22.8641C90.0389 22.8641 89.3565 22.6193 89.3565 22.0147C89.3565 21.2428 90.2061 20.9469 90.9389 20.9469C91.5949 20.9469 91.9045 21.0882 92.3029 21.2813C92.1869 22.2078 91.3893 22.8641 90.5269 22.8641ZM90.7077 17.3828C89.6269 17.3828 88.5077 17.859 88.0445 18.9141L89.3693 19.4672C89.6525 18.9141 90.1797 18.7341 90.7333 18.7341C91.5053 18.7341 92.2901 19.1969 92.3029 20.0206V20.1234C92.0325 19.969 91.4533 19.7375 90.7461 19.7375C89.3173 19.7375 87.8637 20.5222 87.8637 21.989C87.8637 23.3272 89.0349 24.1894 90.3469 24.1894C91.3501 24.1894 91.9045 23.739 92.2509 23.2113H92.3029V23.9837H93.7445V20.149C93.7445 18.3734 92.4181 17.3828 90.7077 17.3828ZM81.4821 18.819H79.3589V15.391H81.4821C82.5981 15.391 83.2317 16.3147 83.2317 17.1049C83.2317 17.88 82.5981 18.819 81.4821 18.819ZM81.4437 13.9987H77.8668V24H79.3589V20.2109H81.4437C83.0981 20.2109 84.7245 19.0134 84.7245 17.1049C84.7245 15.1969 83.0981 13.9987 81.4437 13.9987ZM61.9386 22.8659C60.9073 22.8659 60.0442 22.0021 60.0442 20.8169C60.0442 19.6178 60.9073 18.7418 61.9386 18.7418C62.9567 18.7418 63.7558 19.6178 63.7558 20.8169C63.7558 22.0021 62.9567 22.8659 61.9386 22.8659ZM63.6527 18.1616H63.6011C63.2661 17.7622 62.6214 17.4013 61.8099 17.4013C60.1083 17.4013 58.5489 18.8966 58.5489 20.8169C58.5489 22.7241 60.1083 24.2062 61.8099 24.2062C62.6214 24.2062 63.2661 23.8453 63.6011 23.4331H63.6527V23.9225C63.6527 25.2247 62.9567 25.9203 61.8355 25.9203C60.9207 25.9203 60.3536 25.2631 60.1214 24.7091L58.8199 25.2503C59.1933 26.1522 60.1855 27.2609 61.8355 27.2609C63.5886 27.2609 65.0708 26.2297 65.0708 23.7162V17.6075H63.6527V18.1616ZM66.102 24H67.5964V13.9987H66.102V24ZM69.8005 20.7006C69.762 19.3859 70.8192 18.7159 71.5792 18.7159C72.1724 18.7159 72.6745 19.0125 72.8427 19.4375L69.8005 20.7006ZM74.4402 19.5662C74.1567 18.8062 73.2933 17.4013 71.5276 17.4013C69.7745 17.4013 68.3183 18.7803 68.3183 20.8037C68.3183 22.7113 69.762 24.2062 71.6948 24.2062C73.2542 24.2062 74.1567 23.2528 74.5308 22.6984L73.3708 21.9249C72.984 22.4921 72.4558 22.8659 71.6948 22.8659C70.9348 22.8659 70.3933 22.5178 70.0458 21.8347L74.5948 19.9531L74.4402 19.5662ZM38.194 18.4453V19.8887H41.6479C41.5448 20.7006 41.2742 21.2934 40.8617 21.7059C40.3589 22.2084 39.5727 22.7628 38.194 22.7628C36.0673 22.7628 34.4048 21.0487 34.4048 18.9221C34.4048 16.7956 36.0673 15.0813 38.194 15.0813C39.3411 15.0813 40.1786 15.5325 40.7973 16.1125L41.8158 15.0941C40.952 14.2694 39.8052 13.6378 38.194 13.6378C35.2808 13.6378 32.832 16.0093 32.832 18.9221C32.832 21.8347 35.2808 24.2062 38.194 24.2062C39.7661 24.2062 40.952 23.6906 41.8799 22.7241C42.8336 21.7703 43.1302 20.43 43.1302 19.3472C43.1302 19.0125 43.1042 18.7031 43.0527 18.4453H38.194ZM47.0571 22.8659C46.0258 22.8659 45.1364 22.0153 45.1364 20.8037C45.1364 19.5793 46.0258 18.7418 47.0571 18.7418C48.0879 18.7418 48.9773 19.5793 48.9773 20.8037C48.9773 22.0153 48.0879 22.8659 47.0571 22.8659ZM47.0571 17.4013C45.1748 17.4013 43.6414 18.8318 43.6414 20.8037C43.6414 22.7628 45.1748 24.2062 47.0571 24.2062C48.9386 24.2062 50.4724 22.7628 50.4724 20.8037C50.4724 18.8318 48.9386 17.4013 47.0571 17.4013ZM54.5073 22.8659C53.4767 22.8659 52.5871 22.0153 52.5871 20.8037C52.5871 19.5793 53.4767 18.7418 54.5073 18.7418C55.5386 18.7418 56.4276 19.5793 56.4276 20.8037C56.4276 22.0153 55.5386 22.8659 54.5073 22.8659ZM54.5073 17.4013C52.6258 17.4013 51.0924 18.8318 51.0924 20.8037C51.0924 22.7628 52.6258 24.2062 54.5073 24.2062C56.3895 24.2062 57.923 22.7628 57.923 20.8037C57.923 18.8318 56.3895 17.4013 54.5073 17.4013Z" fill="white"></path><path d="M35.5817 10.5875C34.8645 10.5875 34.2476 10.3351 33.7502 9.8378C33.2525 9.34015 33.0005 8.71704 33.0005 7.99249C33.0005 7.26794 33.2527 6.64594 33.7502 6.14718C34.2476 5.64978 34.8645 5.39749 35.5817 5.39749C35.9471 5.39749 36.2882 5.4606 36.6141 5.59202C36.9401 5.72345 37.2068 5.90591 37.4169 6.14468L37.4664 6.20108L36.9069 6.76046L36.851 6.69171C36.7117 6.52055 36.5345 6.38758 36.31 6.29093C36.0863 6.19451 35.8414 6.14999 35.5817 6.14999C35.0766 6.14999 34.6574 6.32154 34.3074 6.6703C34.3073 6.67038 34.3071 6.67038 34.307 6.67046C33.965 7.02626 33.793 7.45944 33.793 7.99249C33.793 8.52595 33.9652 8.95923 34.3077 9.31515C34.6577 9.66376 35.0768 9.83624 35.5817 9.83624C36.0442 9.83624 36.4267 9.70715 36.7274 9.45156H36.7275C37.0074 9.21369 37.1754 8.89225 37.2349 8.48249H35.5017V7.74499H37.9839L37.9945 7.81249C38.0149 7.94214 38.0292 8.06728 38.0292 8.18749C38.0292 8.87563 37.8194 9.43736 37.4078 9.85062C36.9432 10.3432 36.3321 10.5875 35.5817 10.5875L35.5817 10.5875ZM57.1352 10.5875C56.4169 10.5875 55.8071 10.335 55.3161 9.8378C55.3161 9.83775 55.316 9.83772 55.316 9.83764C55.3159 9.83759 55.3159 9.83756 55.3158 9.83748C54.8241 9.34564 54.5802 8.72239 54.5802 7.99248C54.5802 7.26257 54.8241 6.63932 55.3158 6.14748C55.3158 6.14743 55.3159 6.1474 55.316 6.14732L55.3161 6.14716C55.8071 5.64988 56.4169 5.39747 57.1352 5.39747C57.8521 5.39747 58.462 5.64995 58.953 6.15466C59.4448 6.64642 59.6889 7.26849 59.6889 7.99247C59.6889 8.72238 59.445 9.34564 58.9533 9.83747L58.9531 9.83764C58.4618 10.3352 57.8463 10.5875 57.1352 10.5875L57.1352 10.5875ZM38.7396 10.48V5.50499H38.8196H41.7108V6.25749H39.5183V7.62374H41.4958V8.36124H39.5183V9.72874H41.7108V10.48H38.7396ZM43.5292 10.48V6.25749H42.1842V5.50499H45.653V6.25749H45.573H44.308V10.48H43.5292ZM47.8699 10.48V5.50499H48.6486V5.58499V10.48H47.8699ZM50.6089 10.48V6.25749H49.2639V5.50499H52.7327V6.25749H52.6527H51.3877V10.48H50.6089ZM60.3802 10.48V5.50499H61.2583L63.4931 9.0828L63.4739 8.40358V5.50499H64.2527V10.48H63.4821L61.1397 6.7214L61.1589 7.40015V7.40124V10.48H60.3802ZM57.1352 9.83624C57.6404 9.83624 58.0527 9.66394 58.3889 9.31577L58.3894 9.31513L58.3899 9.31465C58.7309 8.97361 58.8977 8.53457 58.8977 7.99246C58.8977 7.45168 58.7308 7.01117 58.3899 6.67028L58.3894 6.6698L58.3889 6.66932C58.0528 6.32121 57.6405 6.14994 57.1352 6.14994C56.629 6.14994 56.2167 6.32092 55.8742 6.669L55.8739 6.66932C55.5393 7.01849 55.3727 7.45183 55.3727 7.99245C55.3727 8.53438 55.5392 8.96634 55.8739 9.31557L55.8742 9.31589C56.2168 9.66405 56.6292 9.8362 57.1352 9.8362V9.83624Z" fill="white"></path><path d="M16.5715 15.5386L8.05432 24.5786C8.05464 24.5805 8.05528 24.582 8.0556 24.5839C8.3168 25.5655 9.21336 26.2883 10.2774 26.2883C10.7028 26.2883 11.1022 26.1733 11.4446 25.9714L11.4718 25.9555L21.059 20.4233L16.5715 15.5386Z" fill="#EA4335"></path><path d="M25.1885 13.9992L25.1803 13.9936L21.0413 11.5942L16.3782 15.7436L21.0575 20.4224L25.1747 18.0468C25.8966 17.6571 26.3866 16.8961 26.3866 16.0186C26.3866 15.1474 25.9031 14.3902 25.1885 13.9992Z" fill="#FBBC04"></path><path d="M8.05406 7.42108C8.00286 7.60988 7.97595 7.80764 7.97595 8.013V23.9871C7.97595 24.1921 8.00254 24.3905 8.05438 24.5786L16.8647 15.7699L8.05406 7.42108Z" fill="#4285F4"></path><path d="M16.6344 15.9999L21.0429 11.5927L11.4666 6.04052C11.1185 5.83204 10.7122 5.71172 10.2775 5.71172C9.21344 5.71172 8.31568 6.4358 8.0544 7.4186C8.05408 7.41956 8.05408 7.4202 8.05408 7.42108L16.6344 15.9999Z" fill="#34A853"></path></svg>