<svg xmlns="http://www.w3.org/2000/svg" width="20" height="20" viewBox="0 0 20 20" fill="none" data-ab-filters-channel="12e1060b-438a-48c3-8cea-d1f1d3855e33">
<path d="M7.31912 11.817V10.517H6.02045L6.01912 11.8156L7.31912 11.817ZM12.7151 11.817L14.0151 11.8183L14.0164 10.517H12.7151V11.817ZM11.408 18.7071C11.4073 19.425 11.9887 20.0077 12.7067 20.0084C13.4246 20.0091 14.0073 19.4277 14.008 18.7097L11.408 18.7071ZM6.01204 18.7071C6.0113 19.425 6.59274 20.0077 7.31071 20.0084C8.02868 20.0091 8.6113 19.4277 8.61204 18.7097L6.01204 18.7071ZM2.61652 5.50533C2.61652 4.78736 2.03449 4.20533 1.31652 4.20533C0.598549 4.20533 0.0165187 4.78736 0.0165187 5.50533H2.61652ZM1.31641 18.7084L0.0164063 18.7084C0.016404 19.0532 0.153367 19.3838 0.397165 19.6276C0.640962 19.8714 0.971623 20.0084 1.31641 20.0084V18.7084ZM18.6836 18.7084V20.0084C19.4016 20.0084 19.9836 19.4264 19.9836 18.7084L18.6836 18.7084ZM18.6837 1.31641H19.9837C19.9837 0.598436 19.4017 0.0164063 18.6837 0.0164063V1.31641ZM1.31652 1.31641V0.0164063C0.598552 0.0164063 0.0165234 0.598431 0.0165187 1.3164L1.31652 1.31641ZM7.31912 13.117H12.7151V10.517H7.31912V13.117ZM11.4151 11.8156L11.408 18.7071L14.008 18.7097L14.0151 11.8183L11.4151 11.8156ZM8.61204 18.7097L8.61912 11.8183L6.01912 11.8156L6.01204 18.7071L8.61204 18.7097ZM5.80558 5.50533C5.80558 5.9223 5.65001 6.19943 5.42006 6.39321C5.16868 6.60505 4.75741 6.77031 4.21105 6.77031V9.37031C5.26329 9.37031 6.29929 9.05238 7.09552 8.38138C7.91319 7.69232 8.40558 6.68696 8.40558 5.50533H5.80558ZM4.21105 6.77031C3.66469 6.77031 3.25342 6.60505 3.00204 6.39321C2.77209 6.19943 2.61652 5.9223 2.61652 5.50533H0.0165187C0.0165187 6.68696 0.508911 7.69232 1.32658 8.38138C2.12281 9.05238 3.15881 9.37031 4.21105 9.37031V6.77031ZM11.5946 5.50533C11.5946 5.9223 11.4391 6.19943 11.2091 6.39321C10.9577 6.60505 10.5465 6.77031 10.0001 6.77031V9.37031C11.0524 9.37031 12.0884 9.05238 12.8846 8.38138C13.7023 7.69232 14.1946 6.68695 14.1946 5.50533H11.5946ZM10.0001 6.77031C9.45375 6.77031 9.04248 6.60505 8.7911 6.39321C8.56115 6.19943 8.40558 5.9223 8.40558 5.50533H5.80558C5.80558 6.68696 6.29797 7.69232 7.11564 8.38138C7.91187 9.05238 8.94787 9.37031 10.0001 9.37031V6.77031ZM17.3837 5.50533C17.3837 5.9223 17.2281 6.19943 16.9982 6.39321C16.7468 6.60505 16.3355 6.77031 15.7892 6.77031V9.37031C16.8414 9.37031 17.8774 9.05238 18.6737 8.38138C19.4913 7.69232 19.9837 6.68695 19.9837 5.50533H17.3837ZM15.7892 6.77031C15.2428 6.77031 14.8315 6.60505 14.5802 6.39321C14.3502 6.19943 14.1946 5.9223 14.1946 5.50533H11.5946C11.5946 6.68695 12.087 7.69232 12.9047 8.38138C13.7009 9.05238 14.7369 9.37031 15.7892 9.37031V6.77031ZM1.31652 2.61641H18.6837V0.0164063H1.31652V2.61641ZM17.3837 5.50531L17.3836 18.7084L19.9836 18.7084L19.9837 5.50534L17.3837 5.50531ZM18.6836 17.4084H1.31641V20.0084H18.6836V17.4084ZM2.61641 18.7084L2.61652 1.31641L0.0165187 1.3164L0.0164063 18.7084L2.61641 18.7084ZM17.3837 1.31641V5.50533H19.9837V1.31641H17.3837Z" fill="black"/>
</svg>