<svg width="102" height="32" viewBox="0 0 102 32" fill="none" xmlns="http://www.w3.org/2000/svg"><g clip-path="url(#clip0_19390_4567)"><rect width="101.587" height="32" rx="5" fill="black"></rect><path d="M36.6505 22.5994H36.9439V14.9742H36.0318V18.537L36.1298 20.7146L31.1762 14.9736H30.8611V22.5772H31.7624V18.9272L31.686 16.8469L36.6505 22.5988V22.5994ZM43.6894 20.7095L44.58 22.5886H45.5144V22.4689L42.0058 14.9519H41.5933L38.0522 22.4689V22.5886H38.9974L39.888 20.7095H43.6901H43.6894ZM41.7887 16.3753L43.3858 19.9272H40.1922L41.7893 16.3753H41.7887ZM45.9925 20.5141C46.0466 22.0781 47.6328 22.7516 49.0447 22.7191C50.4241 22.6866 51.9887 22.0997 51.9887 20.4708C51.9887 18.7871 50.5769 18.5153 49.067 18.3416C48.1434 18.2219 47.0466 18.1786 47.0466 17.0487C47.0466 16.0494 48.0893 15.7018 48.9257 15.6693C49.7946 15.6693 50.8156 15.9736 50.9028 16.9405H51.75C51.6959 15.4631 50.2185 14.8221 48.904 14.8552C47.5679 14.8552 46.1452 15.5611 46.1452 17.0602C46.1452 18.5809 47.5355 18.9393 48.9149 19.0806C49.9467 19.2219 51.0982 19.2436 51.0982 20.4708C51.0657 21.579 49.9467 21.8935 49.0345 21.9266C48.1001 21.9266 46.9269 21.5358 46.8728 20.5147H45.9931L45.9925 20.5141ZM59.3428 22.5886V14.985H58.4306V18.1894H54.4114V14.985H53.5101V22.5886H54.4114V19.0259H58.4306V22.5886H59.3428ZM62.6668 20.2639C62.0042 20.2639 61.4396 20.2639 60.7877 20.2639C60.7445 23.6096 66.9362 23.5224 66.9362 20.3289C66.9362 18.4281 65.4587 18.2327 63.9488 18.0698C63.2646 17.994 62.6999 17.8743 62.7432 17.2983C62.8081 16.3969 64.8508 16.3097 64.8508 17.3199C65.5135 17.3199 66.0132 17.3199 66.6975 17.3199C66.7407 14.0391 60.8317 14.0391 60.8966 17.3199C60.9182 18.9711 62.0048 19.5357 63.6554 19.6554C64.4161 19.6987 65.0456 19.7859 65.0456 20.318C65.0456 21.2086 62.6668 21.2302 62.6668 20.2639ZM69.4779 16.7228V22.5886C70.1189 22.5886 70.7599 22.5886 71.4003 22.5886V16.7228H73.2577C73.2577 16.1366 73.2577 15.5605 73.2577 14.985H67.609C67.609 15.5605 67.609 16.1366 67.609 16.7228H69.4773H69.4779ZM81.7957 18.7973C81.7957 13.5401 73.9967 13.5401 73.9967 18.7973C73.9967 24.0654 81.7957 24.0654 81.7957 18.7973ZM75.9949 18.7973C75.9949 16.0602 79.8078 16.0602 79.8078 18.7973C79.8078 21.5561 75.9949 21.5561 75.9949 18.7973ZM88.1937 19.8947C90.1161 18.5911 89.5731 14.9959 86.5858 14.985C85.4775 14.985 84.3483 14.985 83.2509 14.985C83.2509 17.5268 83.2509 20.0577 83.2509 22.5886C83.8811 22.5886 84.5437 22.5886 85.1955 22.5886V20.3511H86.2057L87.5094 22.5886H89.6819V22.306L88.1937 19.8947ZM86.5858 18.6019H85.1955C85.1955 17.9934 85.1955 17.3415 85.1955 16.7228C85.6519 16.7228 86.13 16.712 86.5858 16.7228C87.694 16.7336 87.6392 18.6019 86.5858 18.6019ZM95.6018 14.9844C93.8201 14.9844 92.6145 14.9844 90.8551 14.9844C90.8551 17.5045 90.8551 20.0462 90.8551 22.588C92.6145 22.588 93.9182 22.588 95.6999 22.588C95.6999 22.0125 95.6999 21.4256 95.6999 20.861C94.5592 20.861 93.9073 20.861 92.7889 20.861C92.7889 20.4046 92.7889 19.9705 92.7889 19.5249H95.3739C95.3739 18.9495 95.3739 18.3734 95.3739 17.798H92.7889V16.7228C93.908 16.7228 94.4726 16.7228 95.6025 16.7228C95.6025 16.1366 95.6025 15.5497 95.6025 14.985L95.6018 14.9844Z" fill="white"></path><path d="M22.0067 7.92507C22.0856 7.78821 21.987 7.61761 21.8291 7.61761H18.4401C18.2823 7.61761 18.1836 7.78821 18.2625 7.92507L19.957 10.8596C20.0359 10.9964 20.2333 10.9964 20.3122 10.8596L22.0067 7.92507Z" fill="#AE2B30"></path><path d="M18.4179 24.3703C18.339 24.5071 18.4377 24.6777 18.5955 24.6777H21.9845C22.1424 24.6777 22.241 24.5071 22.1621 24.3703L20.4676 21.4352C20.3887 21.2983 20.1913 21.2983 20.113 21.4352L18.4186 24.3703H18.4179Z" fill="#AE2B30"></path><path d="M24.5166 11.3083C24.6745 11.3083 24.7731 11.1377 24.6942 11.0009L22.9997 8.06575C22.9208 7.92889 22.7234 7.92889 22.6445 8.06575L20.95 11.0009C20.8711 11.1377 20.9698 11.3083 21.1276 11.3083H24.5166Z" fill="#AE2B30"></path><path d="M22.6445 15.1423C22.7234 15.2791 22.9208 15.2791 22.9997 15.1423L24.6942 12.2071C24.7731 12.0709 24.6745 11.8997 24.5166 11.8997H21.1276C20.9698 11.8997 20.8711 12.0703 20.95 12.2071L22.6445 15.1423Z" fill="#AE2B30"></path><path d="M27.0781 15.7451C27.236 15.7451 27.3347 15.5745 27.2557 15.4376L25.5612 12.5025C25.4823 12.3656 25.285 12.3656 25.206 12.5025L23.5115 15.4376C23.4326 15.5745 23.5313 15.7451 23.6891 15.7451H27.0781Z" fill="#AE2B30"></path><path d="M25.206 19.579C25.285 19.7152 25.4823 19.7152 25.5612 19.579L27.2557 16.6439C27.3347 16.507 27.236 16.3364 27.0781 16.3364H23.6891C23.5313 16.3364 23.4326 16.507 23.5115 16.6439L25.206 19.579Z" fill="#AE2B30"></path><path d="M20.95 19.875C20.8711 20.0118 20.9698 20.1824 21.1276 20.1824H24.5166C24.6745 20.1824 24.7731 20.0118 24.6942 19.875L22.9997 16.9399C22.9208 16.803 22.7234 16.803 22.6445 16.9399L20.95 19.875Z" fill="#AE2B30"></path><path d="M22.6445 24.0164C22.7234 24.1532 22.9208 24.1532 22.9997 24.0164L24.6942 21.0813C24.7731 20.9444 24.6745 20.7738 24.5166 20.7738H21.1276C20.9698 20.7738 20.8711 20.9444 20.95 21.0813L22.6445 24.0164Z" fill="#AE2B30"></path><path d="M15.2701 7.75002C15.3491 7.61316 15.2504 7.44257 15.0925 7.44257H11.7035C11.5457 7.44257 11.447 7.61316 11.5259 7.75002L13.2204 10.6845C13.2994 10.8214 13.4967 10.8214 13.5756 10.6845L15.2701 7.75002Z" fill="#363789"></path><path d="M11.4489 24.3493C11.37 24.4861 11.4687 24.6567 11.6265 24.6567H15.0155C15.1734 24.6567 15.272 24.4861 15.1931 24.3493L13.4986 21.4142C13.4197 21.2773 13.2223 21.2773 13.1441 21.4142L11.4496 24.3493H11.4489Z" fill="#363789"></path><path d="M17.7406 11.288C17.8985 11.288 17.9971 11.1174 17.9182 10.9805L16.2237 8.04539C16.1448 7.90853 15.9474 7.90853 15.8685 8.04539L14.174 10.9805C14.0951 11.1174 14.1938 11.288 14.3516 11.288H17.7406Z" fill="#363789"></path><path d="M15.8691 15.1212C15.9481 15.2581 16.1454 15.2581 16.2243 15.1212L17.9188 12.1861C17.9977 12.0499 17.8991 11.8787 17.7412 11.8787H14.3522C14.1944 11.8787 14.0957 12.0493 14.1746 12.1861L15.8691 15.1212Z" fill="#363789"></path><path d="M20.3027 15.7247C20.4606 15.7247 20.5593 15.5541 20.4803 15.4173L18.7858 12.4821C18.7069 12.3453 18.5096 12.3453 18.4306 12.4821L16.7362 15.4173C16.6572 15.5541 16.7559 15.7247 16.9137 15.7247H20.3027Z" fill="#363789"></path><path d="M18.4306 19.5586C18.5096 19.6948 18.7069 19.6948 18.7858 19.5586L20.4803 16.6235C20.5593 16.4866 20.4606 16.316 20.3027 16.316H16.9137C16.7559 16.316 16.6572 16.4866 16.7362 16.6235L18.4306 19.5586Z" fill="#363789"></path><path d="M14.1746 19.8546C14.0957 19.9915 14.1944 20.1621 14.3522 20.1621H17.7412C17.8991 20.1621 17.9977 19.9915 17.9188 19.8546L16.2243 16.9195C16.1454 16.7826 15.9481 16.7826 15.8691 16.9195L14.1746 19.8546Z" fill="#363789"></path><path d="M15.8691 23.9954C15.9481 24.1322 16.1454 24.1322 16.2243 23.9954L17.9188 21.0602C17.9977 20.9234 17.8991 20.7528 17.7412 20.7528H14.3522C14.1944 20.7528 14.0957 20.9234 14.1746 21.0602L15.8691 23.9954Z" fill="#363789"></path><path d="M8.75706 7.62972C8.83599 7.49286 8.73733 7.32227 8.57946 7.32227H5.19048C5.03262 7.32227 4.93396 7.49286 5.01289 7.62972L6.70738 10.5642C6.78631 10.7011 6.98364 10.7011 7.06257 10.5642L8.75706 7.62972Z" fill="#D9DADA"></path><path d="M4.68501 24.2296C4.60607 24.3665 4.70474 24.5371 4.8626 24.5371H8.25158C8.40945 24.5371 8.50811 24.3665 8.42918 24.2296L6.73469 21.2945C6.65576 21.1576 6.45843 21.1576 6.38013 21.2945L4.68564 24.2296H4.68501Z" fill="#D9DADA"></path><path d="M11.3248 11.1683C11.4827 11.1683 11.5814 10.9977 11.5024 10.8608L9.80793 7.9257C9.729 7.78884 9.53167 7.78884 9.45274 7.9257L7.75825 10.8608C7.67932 10.9977 7.77798 11.1683 7.93585 11.1683H11.3248Z" fill="#D9DADA"></path><path d="M9.10459 15.0016C9.18353 15.1384 9.38086 15.1384 9.45979 15.0016L11.1543 12.0665C11.2332 11.9302 11.1345 11.759 10.9767 11.759H7.5877C7.42984 11.759 7.33117 11.9296 7.4101 12.0665L9.10459 15.0016Z" fill="#D9DADA"></path><path d="M13.5381 15.605C13.6959 15.605 13.7946 15.4344 13.7157 15.2976L12.0212 12.3624C11.9423 12.2256 11.7449 12.2256 11.666 12.3624L9.97151 15.2976C9.89257 15.4344 9.99124 15.605 10.1491 15.605H13.5381Z" fill="#D9DADA"></path><path d="M11.6666 19.439C11.7455 19.5752 11.9429 19.5752 12.0218 19.439L13.7163 16.5038C13.7952 16.367 13.6966 16.1964 13.5387 16.1964H10.1497C9.99185 16.1964 9.89318 16.367 9.97212 16.5038L11.6666 19.439Z" fill="#D9DADA"></path><path d="M7.41071 19.7349C7.33178 19.8718 7.43045 20.0424 7.58831 20.0424H10.9773C11.1352 20.0424 11.2338 19.8718 11.1549 19.7349L9.4604 16.7998C9.38147 16.663 9.18414 16.663 9.1052 16.7998L7.41071 19.7349Z" fill="#D9DADA"></path><path d="M9.10459 23.8757C9.18353 24.0125 9.38086 24.0125 9.45979 23.8757L11.1543 20.9406C11.2332 20.8037 11.1345 20.6331 10.9767 20.6331H7.5877C7.42984 20.6331 7.33117 20.8037 7.4101 20.9406L9.10459 23.8757Z" fill="#D9DADA"></path><path d="M31.2137 7.48333L30.9203 7.15996C31.4072 6.73284 31.9598 6.51959 32.5785 6.51959C33.0253 6.51959 33.3869 6.62208 33.6619 6.82768C33.9375 7.03329 34.075 7.30191 34.075 7.63291V7.64501C34.075 7.88817 34.0031 8.09696 33.8592 8.27073C33.7154 8.44451 33.5059 8.57119 33.231 8.65075C33.518 8.71059 33.7466 8.82708 33.9165 9.00086C34.0858 9.17463 34.1711 9.38915 34.1711 9.64441V9.65013C34.1711 9.99705 34.0215 10.2848 33.7224 10.512C33.4232 10.7393 33.0222 10.8532 32.5193 10.8532C31.877 10.8532 31.3239 10.6559 30.8611 10.2606L31.1424 9.91939C31.5657 10.2587 32.0266 10.428 32.525 10.428C32.8681 10.428 33.1463 10.3529 33.3602 10.2033C33.5734 10.0537 33.6804 9.86529 33.6804 9.6374V9.62531C33.6804 9.38215 33.5766 9.19628 33.3691 9.06833C33.1616 8.94038 32.8681 8.87673 32.4894 8.87673H31.7707V8.46361H32.4951C32.8185 8.46361 33.0807 8.3955 33.2825 8.25991C33.4843 8.12433 33.5849 7.93273 33.5849 7.68511V7.67938C33.5849 7.45977 33.4919 7.28218 33.3067 7.14659C33.1208 7.01101 32.8745 6.9429 32.5677 6.9429C32.0807 6.9429 31.63 7.1224 31.215 7.48142L31.2137 7.48333ZM35.991 10.8475C35.6797 10.8475 35.4092 10.7628 35.1801 10.5929C34.9503 10.4235 34.8357 10.1867 34.8357 9.88375V9.87165C34.8357 9.55656 34.9566 9.31085 35.1979 9.13517C35.4391 8.95948 35.7593 8.87164 36.1584 8.87164C36.4735 8.87164 36.7912 8.91556 37.1101 9.0034V8.89583C37.1101 8.6202 37.0305 8.41078 36.8707 8.26755C36.711 8.12369 36.4837 8.05176 36.1884 8.05176C35.8771 8.05176 35.5639 8.12751 35.2488 8.27901L35.1113 7.90217C35.4748 7.73031 35.8497 7.64501 36.2367 7.64501C36.6759 7.64501 37.0089 7.75895 37.2367 7.9862C37.4481 8.19753 37.5537 8.49926 37.5537 8.8901V10.7819H37.1107V10.3147C36.8395 10.6699 36.4659 10.8475 35.991 10.8475ZM36.0808 10.4821C36.3723 10.4821 36.6174 10.4032 36.8173 10.2459C37.0165 10.0881 37.1164 9.88757 37.1164 9.64441V9.34523C36.8052 9.25738 36.5022 9.21346 36.2068 9.21346C35.9197 9.21346 35.6969 9.27139 35.5391 9.38724C35.3812 9.50309 35.3029 9.65841 35.3029 9.85447V9.86656C35.3029 10.0543 35.3787 10.2039 35.5302 10.3153C35.6817 10.4274 35.8656 10.4827 36.0808 10.4827V10.4821ZM38.5353 10.7813V7.68638H40.7861V8.10523H38.9962V10.7813H38.5353ZM41.4806 11.7393V7.68638H41.9415V8.30893C42.2648 7.84998 42.6601 7.62018 43.1267 7.62018C43.522 7.62018 43.867 7.76595 44.1624 8.05686C44.4577 8.34839 44.6054 8.73733 44.6054 9.22428V9.23638C44.6054 9.71952 44.4577 10.1084 44.1624 10.4038C43.867 10.6992 43.522 10.8468 43.1267 10.8468C42.6359 10.8468 42.2407 10.6272 41.9415 10.1887V11.7393H41.4806ZM43.0427 10.4344C43.354 10.4344 43.6137 10.3268 43.8212 10.111C44.0287 9.89521 44.1325 9.60621 44.1325 9.24274V9.23065C44.1325 8.87164 44.0274 8.58201 43.818 8.3624C43.6086 8.14279 43.3502 8.0333 43.0427 8.0333C42.7473 8.0333 42.487 8.14724 42.2617 8.37449C42.0363 8.60174 41.9236 8.885 41.9236 9.22428V9.23638C41.9236 9.5833 42.0357 9.86974 42.2591 10.0951C42.4825 10.3204 42.7442 10.4331 43.0433 10.4331L43.0427 10.4344ZM46.6284 10.2669L47.622 7.68702H48.1128L46.8136 10.8838C46.6857 11.1989 46.5412 11.4236 46.3795 11.5572C46.2178 11.6909 46.0192 11.7577 45.7837 11.7577C45.5602 11.7577 45.3406 11.7062 45.1255 11.6018L45.2808 11.2364C45.4285 11.3122 45.5902 11.3504 45.7659 11.3504C45.9097 11.3504 46.0281 11.3077 46.1223 11.2218C46.2159 11.1358 46.3088 10.9856 46.4005 10.7698L44.9937 7.68702H45.5023L46.6277 10.2669H46.6284ZM48.5323 10.4344L48.7716 10.0932C49.1109 10.3325 49.4903 10.4522 49.9091 10.4522C50.1924 10.4522 50.4139 10.4044 50.5737 10.3083C50.7335 10.2128 50.813 10.0811 50.813 9.91303V9.9073C50.813 9.74371 50.7373 9.61894 50.5858 9.53301C50.4343 9.44708 50.2223 9.40443 49.9512 9.40443H49.2567V9.03332H49.9448C50.1924 9.03332 50.3846 8.98749 50.5228 8.89583C50.6603 8.80416 50.729 8.67813 50.729 8.51899V8.51326C50.729 8.35731 50.659 8.23509 50.5196 8.14534C50.3802 8.05558 50.1841 8.01039 49.9327 8.01039C49.5495 8.01039 49.1765 8.13833 48.813 8.39359L48.5737 8.07022C48.9804 7.77105 49.4375 7.62146 49.9448 7.62146C50.3318 7.62146 50.6374 7.70039 50.8608 7.85762C51.0842 8.01548 51.1962 8.22172 51.1962 8.47698V8.48271C51.1962 8.8379 50.9887 9.07724 50.5737 9.20137C50.7774 9.24147 50.9461 9.32486 51.0798 9.4528C51.2134 9.58075 51.2803 9.74243 51.2803 9.93785V9.94358C51.2803 10.2033 51.1587 10.4197 50.9149 10.5929C50.6717 10.7666 50.3363 10.8532 49.9091 10.8532C49.3744 10.8532 48.9155 10.7138 48.5323 10.4344ZM52.1301 10.7813V7.68638H52.5909V10.0868L54.4706 7.68638H54.9137V10.7813H54.4586V8.37513L52.561 10.7813H52.1301ZM56.8469 10.7813V8.0995H55.6075V7.68638H58.5528V8.0995H57.3077V10.7813H56.8469ZM60.3969 10.8532C59.966 10.8532 59.6006 10.7023 59.3014 10.4013C59.0022 10.1002 58.8526 9.71379 58.8526 9.24274V9.23065C58.8526 8.77997 58.9933 8.39868 59.2747 8.08741C59.556 7.77614 59.9099 7.62018 60.3371 7.62018C60.7801 7.62018 61.1315 7.77614 61.3906 8.08741C61.6503 8.39868 61.7795 8.78761 61.7795 9.25484C61.7795 9.31849 61.7776 9.36878 61.7738 9.40443H59.3192C59.3511 9.73161 59.4701 9.98814 59.6757 10.1734C59.8813 10.3592 60.1257 10.4515 60.409 10.4515C60.7763 10.4515 61.1016 10.3058 61.3848 10.0149L61.6719 10.272C61.3326 10.6591 60.9074 10.8526 60.3969 10.8526V10.8532ZM59.3192 9.06324H61.3129C61.2887 8.76406 61.192 8.51326 61.0226 8.31211C60.8533 8.11033 60.6203 8.00975 60.325 8.00975C60.0576 8.00975 59.831 8.10969 59.6458 8.30893C59.4599 8.50817 59.3517 8.7596 59.3192 9.06324ZM64.3836 10.7813V7.68638H65.9457C66.2691 7.68638 66.5243 7.7564 66.7121 7.89581C66.8999 8.03521 66.9934 8.23127 66.9934 8.48271V8.48844C66.9934 8.83153 66.8076 9.06706 66.4365 9.195C66.8871 9.32295 67.1131 9.57184 67.1131 9.94358V9.94931C67.1131 10.2128 67.0094 10.4184 66.8018 10.5661C66.5943 10.7138 66.3092 10.7857 65.9457 10.7819H64.3836V10.7813ZM64.8387 9.03905H65.8502C66.0698 9.03905 66.2372 8.99322 66.3531 8.90155C66.4689 8.80989 66.5269 8.68385 66.5269 8.52472V8.51899C66.5269 8.37513 66.4721 8.26182 66.362 8.1778C66.2525 8.09378 66.0959 8.05431 65.8922 8.05813H64.8387V9.03968V9.03905ZM64.8387 9.39806V10.4095H65.9342C66.1615 10.4095 66.3384 10.3656 66.4638 10.2778C66.5892 10.1899 66.6523 10.0722 66.6523 9.92449V9.91876C66.6523 9.75517 66.5867 9.62658 66.4549 9.53237C66.3232 9.4388 66.1335 9.39361 65.8865 9.39743H64.8387V9.39806Z" fill="white"></path></g><rect x="0.5" y="0.5" width="100.587" height="31" rx="4.5" stroke="#A6A6A6"></rect><defs><clipPath id="clip0_19390_4567"><rect width="101.587" height="32" rx="5" fill="white"></rect></clipPath></defs></svg>