<svg width="16" height="16" viewBox="0 0 16 16" fill="none" xmlns="http://www.w3.org/2000/svg"><path d="m14.6 8.131.425-.424-.85-.848-.423.424.848.848Zm-1.598.75-.424.425.424.424.425-.425-.425-.424Zm-.75-1.598-.425-.424-.848.848.425.424.848-.848Zm.297 1.239a.6.6 0 0 0 1.193.132l-1.193-.132Zm-.079 3.177.378-.466-.933-.755-.378.467.933.754ZM8.494 5.065v-.6h-1.2v.6h1.2Zm-.6 2.936h-.6v.247l.174.175.426-.422Zm.99 1.848.423.425.851-.845-.423-.426-.851.846Zm4.868-2.566-1.174 1.174.849.848L14.6 8.131l-.848-.848Zm-.326 1.174-1.174-1.174-.849.848 1.175 1.175.848-.85Zm-5.532 4.227A4.684 4.684 0 0 1 3.21 8.001h-1.2a5.884 5.884 0 0 0 5.884 5.883v-1.2ZM3.21 8.001a4.684 4.684 0 0 1 4.684-4.684v-1.2A5.884 5.884 0 0 0 2.01 8h1.2Zm4.684-4.684A4.684 4.684 0 0 1 12.578 8h1.2a5.884 5.884 0 0 0-5.884-5.884v1.2ZM12.578 8c0 .176-.01.35-.029.52l1.193.133c.024-.215.036-.433.036-.653h-1.2Zm-1.04 2.944a4.674 4.674 0 0 1-3.644 1.74v1.2a5.874 5.874 0 0 0 4.576-2.186l-.933-.754Zm-4.244-5.88v2.936h1.2V5.065h-1.2Zm.174 3.358L8.884 9.85l.851-.846L8.32 7.578l-.852.845Z" fill="#1D1D1D"></path></svg>