<svg width="32" height="32" viewBox="0 0 32 32" fill="none" xmlns="http://www.w3.org/2000/svg"><path fill-rule="evenodd" clip-rule="evenodd" d="M3.74 6.666C2.67 8.522 2.67 11.014 2.67 15.999c0 4.984 0 7.477 1.072 9.333a8 8 0 0 0 2.928 2.928c1.856 1.072 4.349 1.072 9.333 1.072 4.985 0 7.477 0 9.334-1.072a8 8 0 0 0 2.928-2.928c1.072-1.856 1.072-4.349 1.072-9.333 0-4.985 0-7.477-1.072-9.333a8 8 0 0 0-2.928-2.929c-1.857-1.071-4.35-1.071-9.334-1.071s-7.477 0-9.333 1.071A8 8 0 0 0 3.74 6.666Zm13.982 5.463c0-.943-.771-1.71-1.72-1.71-.947 0-1.719.767-1.719 1.71 0 .942.772 1.709 1.72 1.709s1.719-.767 1.719-1.71Zm2.433 0c0 2.276-1.862 4.128-4.153 4.128-2.29 0-4.152-1.852-4.152-4.128 0-2.278 1.862-4.13 4.152-4.13s4.153 1.852 4.153 4.13Zm-.061 6.503c-.751.47-1.566.802-2.412.993l2.322 2.309a1.204 1.204 0 0 1 0 1.71 1.22 1.22 0 0 1-1.72 0l-2.282-2.268-2.28 2.268a1.219 1.219 0 0 1-1.721 0 1.205 1.205 0 0 1 0-1.71l2.32-2.309a7.814 7.814 0 0 1-2.41-.993 1.206 1.206 0 0 1-.381-1.668 1.219 1.219 0 0 1 1.677-.38 5.297 5.297 0 0 0 5.59 0 1.22 1.22 0 0 1 1.678.38 1.206 1.206 0 0 1-.381 1.668Z" fill="#fff"></path></svg>