<svg xmlns="http://www.w3.org/2000/svg" width="23" height="20" viewBox="0 0 23 20" fill="none" data-ab-filters-channel="4ce57ece-d5e5-4512-970d-f625beef8092">
<path d="M21.0942 11.0573L22.1515 10.3011L20.639 8.18628L19.5816 8.94254L21.0942 11.0573ZM18.3247 11.4398L17.4773 12.4256L18.2511 13.0907L19.081 12.4972L18.3247 11.4398ZM17.2737 8.8221L16.2878 7.97471L14.593 9.94642L15.5789 10.7938L17.2737 8.8221ZM17.2673 10.817C17.1884 11.5306 17.703 12.1731 18.4166 12.252C19.1302 12.3308 19.7727 11.8163 19.8516 11.1027L17.2673 10.817ZM17.7029 16.2482L18.5207 15.2376L16.4996 13.6021L15.6818 14.6126L17.7029 16.2482ZM11.2731 6.10574V4.80574H8.67308V6.10574H11.2731ZM9.97308 9.99993H8.67308V10.5756L9.09931 10.9625L9.97308 9.99993ZM11.2535 12.918L12.2161 13.7917L13.9636 11.8666L13.0011 10.9928L11.2535 12.918ZM19.5816 8.94254L17.5685 10.3824L19.081 12.4972L21.0942 11.0573L19.5816 8.94254ZM19.1721 10.4539L17.2737 8.8221L15.5789 10.7938L17.4773 12.4256L19.1721 10.4539ZM9.97308 17.339C5.91981 17.339 2.63398 14.0532 2.63398 9.99993H0.0339844C0.0339844 15.4891 4.48387 19.939 9.97308 19.939V17.339ZM2.63398 9.99993C2.63398 5.94666 5.91981 2.66084 9.97308 2.66084V0.0608399C4.48387 0.0608399 0.0339844 4.51072 0.0339844 9.99993H2.63398ZM9.97308 2.66084C14.0263 2.66084 17.3122 5.94666 17.3122 9.99993H19.9122C19.9122 4.51072 15.4623 0.0608399 9.97308 0.0608399V2.66084ZM17.3122 9.99993C17.3122 10.2766 17.2969 10.5492 17.2673 10.817L19.8516 11.1027C19.8916 10.7402 19.9122 10.3722 19.9122 9.99993H17.3122ZM15.6818 14.6126C14.3342 16.278 12.278 17.339 9.97308 17.339V19.939C13.0959 19.939 15.8829 18.4973 17.7029 16.2482L15.6818 14.6126ZM8.67308 6.10574V9.99993H11.2731V6.10574H8.67308ZM9.09931 10.9625L11.2535 12.918L13.0011 10.9928L10.8468 9.03736L9.09931 10.9625Z" fill="#1D1D1D"/>
</svg>