<svg xmlns="http://www.w3.org/2000/svg" width="23" height="22" viewBox="0 0 23 22" fill="none" data-ab-filters-channel="6e8b3a7a-fffe-4942-bdfe-c8813a9671e1">
<path d="M11.6791 2L12.8289 1.39337C12.6039 0.966895 12.1613 0.7 11.6791 0.7C11.1969 0.7 10.7543 0.966895 10.5293 1.39337L11.6791 2ZM14.7898 7.89578L13.64 8.50241L13.9383 9.06776L14.5681 9.17674L14.7898 7.89578ZM21.3582 9.03228L22.2905 9.93833C22.6265 9.59255 22.7436 9.08915 22.5946 8.63056C22.4456 8.17197 22.055 7.83353 21.5799 7.75132L21.3582 9.03228ZM16.7122 13.8126L15.78 12.9065L15.3345 13.3649L15.4255 13.9976L16.7122 13.8126ZM17.6611 20.4108L17.0875 21.5774C17.5202 21.7901 18.0351 21.7459 18.4252 21.4625C18.8153 21.1791 19.0165 20.703 18.9479 20.2257L17.6611 20.4108ZM11.6791 17.4694L12.2527 16.3028L11.6791 16.0207L11.1055 16.3028L11.6791 17.4694ZM5.69709 20.4108L4.41033 20.2257C4.34169 20.703 4.54287 21.1791 4.93297 21.4625C5.32307 21.7459 5.838 21.7901 6.27071 21.5774L5.69709 20.4108ZM6.64597 13.8126L7.93273 13.9976L8.02372 13.3649L7.57822 12.9065L6.64597 13.8126ZM2 9.03228L1.77836 7.75132C1.30323 7.83353 0.912632 8.17197 0.763627 8.63056C0.614621 9.08915 0.731689 9.59255 1.06776 9.93833L2 9.03228ZM8.56846 7.89578L8.7901 9.17674L9.41996 9.06776L9.71824 8.50241L8.56846 7.89578ZM10.5293 2.60663L13.64 8.50241L15.9395 7.28914L12.8289 1.39337L10.5293 2.60663ZM14.5681 9.17674L21.1366 10.3133L21.5799 7.75132L15.0114 6.61481L14.5681 9.17674ZM20.426 8.12624L15.78 12.9065L17.6445 14.7186L22.2905 9.93833L20.426 8.12624ZM15.4255 13.9976L16.3744 20.5958L18.9479 20.2257L17.999 13.6275L15.4255 13.9976ZM18.2348 19.2442L12.2527 16.3028L11.1055 18.636L17.0875 21.5774L18.2348 19.2442ZM11.1055 16.3028L5.12347 19.2442L6.27071 21.5774L12.2527 18.636L11.1055 16.3028ZM6.98385 20.5958L7.93273 13.9976L5.35921 13.6275L4.41033 20.2257L6.98385 20.5958ZM7.57822 12.9065L2.93224 8.12624L1.06776 9.93833L5.71373 14.7186L7.57822 12.9065ZM2.22164 10.3133L8.7901 9.17674L8.34682 6.61481L1.77836 7.75132L2.22164 10.3133ZM9.71824 8.50241L12.8289 2.60663L10.5293 1.39337L7.41868 7.28914L9.71824 8.50241Z" fill="black"/>
</svg>