<svg width="64" height="64" viewBox="0 0 64 64" fill="none" xmlns="http://www.w3.org/2000/svg"><path d="M0 19.2C0 12.48 0 9.12 1.308 6.552a12 12 0 0 1 5.244-5.244C9.12 0 12.48 0 19.2 0h25.6c6.72 0 10.08 0 12.648 1.308a12 12 0 0 1 5.244 5.244C64 9.12 64 12.48 64 19.2v25.6c0 6.72 0 10.08-1.308 12.648a12 12 0 0 1-5.244 5.244C54.88 64 51.52 64 44.8 64H19.2c-6.72 0-10.08 0-12.648-1.308a12 12 0 0 1-5.244-5.244C0 54.88 0 51.52 0 44.8V19.2Z" fill="#FF3000"></path><path d="M48.206 53c-2.857 0-4.825-1.566-4.825-6.417V45.54h3.175v1.044c0 2.579.698 3.285 1.65 3.285s1.62-.706 1.62-1.904c0-1.505-.223-2.333-2.445-3.899-2.603-1.811-3.81-3.746-3.81-6.232 0-3.163 1.715-5.066 4.635-5.066 2.032 0 4.73.614 4.73 5.771v1.198h-3.174V38.54c0-2.026-.666-2.701-1.556-2.701-.952 0-1.46.675-1.46 1.872 0 1.228.285 2.241 2.508 3.9C52.016 43.667 53 45.294 53 47.965 53 50.635 51.73 53 48.206 53Zm-10.825 0c-2.857 0-4.825-1.32-4.825-6.417V45.54h3.174v1.044c0 2.579.699 3.285 1.65 3.285.953 0 1.62-.706 1.62-1.904 0-1.505-.222-2.333-2.444-3.899-2.604-1.811-3.81-3.746-3.81-6.232 0-3.163 1.714-5.066 4.635-5.066 2.031 0 4.73.614 4.73 5.771v1.198h-3.174V38.54c0-2.026-.667-2.701-1.556-2.701-.952 0-1.46.675-1.46 1.872 0 1.228.285 2.241 2.507 3.9 2.762 2.057 3.746 3.684 3.746 6.355 0 2.67-1.27 5.035-4.793 5.035Zm10.825-21.768c-2.857 0-4.825-1.566-4.825-6.417v-1.043h3.175v1.044c0 2.579.698 3.285 1.65 3.285s1.62-.706 1.62-1.904c0-1.504-.223-2.333-2.445-3.899-2.603-1.811-3.81-3.745-3.81-6.232 0-3.162 1.715-5.066 4.635-5.066 2.032 0 4.73.614 4.73 5.772v1.197h-3.174v-1.197c0-2.026-.666-2.702-1.556-2.702-.952 0-1.46.676-1.46 1.873 0 1.228.285 2.24 2.508 3.899C52.016 21.899 53 23.526 53 26.197c0 2.67-1.27 5.035-4.794 5.035Zm-10.825 0c-2.857 0-4.825-1.32-4.825-6.417v-1.043h3.174v1.044c0 2.579.699 3.285 1.65 3.285.953 0 1.62-.706 1.62-1.904 0-1.504-.222-2.333-2.444-3.899-2.604-1.811-3.81-3.745-3.81-6.232 0-3.162 1.714-5.066 4.635-5.066 2.031 0 4.73.614 4.73 5.772v1.197h-3.174v-1.197c0-2.026-.667-2.702-1.556-2.702-.952 0-1.46.676-1.46 1.873 0 1.228.285 2.24 2.507 3.899 2.762 2.057 3.746 3.684 3.746 6.355 0 2.67-1.27 5.035-4.793 5.035ZM14.175 45.54h.635c1.397 0 2.095-.676 2.095-3.807v-1.781c0-3.131-.698-3.807-2.095-3.807h-.635v9.395Zm0 7.153h-3.174V33.074h3.81c4.126 0 5.27 2.272 5.27 6.57v2.395c0 4.298-1.144 6.57-5.27 6.57h-.636v4.084Zm.635-31.991h-.636v-6.325h.636c1.428 0 2.094.46 2.094 2.61v1.105c.001 2.15-.665 2.61-2.094 2.61Zm5.873 10.224-2.445-8.167c1.175-.952 1.842-2.518 1.842-4.452v-1.535c0-3.592-1.651-5.465-5.27-5.465H11v19.619h3.174v-7.154h.413c.16 0 .381 0 .73-.031l1.905 7.184h3.46Zm3.619 14.614 1.619-9.395h.254l1.619 9.395h-3.492ZM29 52.693h3.175L28.65 33.074h-5.206l-3.556 19.619h3.175l.73-4.083h4.508L29 52.693Zm-2.635-21.46c-3.905 0-4.635-2.856-4.635-6.325v-13.6h3.302v13.876c0 2.426.444 2.978 1.333 2.978s1.333-.552 1.333-2.978V11.307H31v13.601c0 3.469-.73 6.324-4.635 6.324Z" fill="#fff"></path></svg>