<svg width="107" height="32" viewBox="0 0 107 32" fill="none" xmlns="http://www.w3.org/2000/svg"><g clip-path="url(#clip0_19390_4547)"><path d="M102.716 -0.128021H3.95062C1.76875 -0.128021 0 1.66284 0 3.87198V27.872C0 30.0811 1.76875 31.872 3.95062 31.872H102.716C104.898 31.872 106.667 30.0811 106.667 27.872V3.87198C106.667 1.66284 104.898 -0.128021 102.716 -0.128021Z" fill="black"></path><path d="M102.716 0.511979C103.596 0.511979 104.44 0.865978 105.063 1.4961C105.685 2.12622 106.035 2.98085 106.035 3.87198V27.872C106.035 28.7631 105.685 29.6177 105.063 30.2479C104.44 30.878 103.596 31.232 102.716 31.232H3.95062C3.07049 31.232 2.22641 30.878 1.60407 30.2479C0.981727 29.6177 0.632099 28.7631 0.632099 27.872V3.87198C0.632099 2.98085 0.981727 2.12622 1.60407 1.4961C2.22641 0.865978 3.07049 0.511979 3.95062 0.511979H102.716ZM102.716 -0.128021H3.95062C2.90285 -0.128021 1.89799 0.293406 1.15711 1.04355C0.416225 1.7937 0 2.81111 0 3.87198V27.872C0 28.9328 0.416225 29.9503 1.15711 30.7004C1.89799 31.4506 2.90285 31.872 3.95062 31.872H102.716C103.764 31.872 104.769 31.4506 105.51 30.7004C106.25 29.9503 106.667 28.9328 106.667 27.872V3.87198C106.667 2.81111 106.25 1.7937 105.51 1.04355C104.769 0.293406 103.764 -0.128021 102.716 -0.128021Z" fill="#A6A6A6"></path><g clip-path="url(#clip1_19390_4547)"><path fill-rule="evenodd" clip-rule="evenodd" d="M20.3709 27.104C15.394 27.104 12.9056 27.104 11.3595 25.5519C9.81335 23.9998 9.81335 21.5017 9.81335 16.5055L9.81335 15.6223C9.81335 10.6262 9.81335 8.12811 11.3595 6.576C12.9056 5.02399 15.394 5.02399 20.3709 5.02399L21.2507 5.02399C26.2275 5.02399 28.716 5.02399 30.2621 6.576C31.8082 8.12808 31.8082 10.6262 31.8082 15.6223V16.5055C31.8082 21.5017 31.8082 23.9998 30.2621 25.5519C28.716 27.104 26.2275 27.104 21.2507 27.104H20.3709Z" fill="#0077FF"></path><path d="M22.532 18.6311C21.9395 18.4824 21.5239 17.9503 21.5239 17.34V10.1494C21.5239 9.45619 22.1765 8.94777 22.8496 9.11656L27.1121 10.1855C27.7047 10.3341 28.1202 10.8662 28.1202 11.4766V18.6671C28.1202 19.3603 27.4677 19.8688 26.7946 19.7L22.532 18.6311Z" fill="white"></path><path d="M14.5096 21.942C13.917 21.7934 13.5015 21.2612 13.5015 20.6509V13.4604C13.5015 12.7671 14.154 12.2587 14.8271 12.4275L19.0896 13.4964C19.6822 13.645 20.0977 14.1772 20.0977 14.7875V21.978C20.0977 22.6713 19.4452 23.1797 18.7721 23.0109L14.5096 21.942Z" fill="white"></path><path d="M18.5208 20.2866C17.9282 20.138 17.5127 19.6058 17.5127 18.9955V11.805C17.5127 11.1117 18.1652 10.6033 18.8383 10.7721L23.1008 11.841C23.6935 11.9896 24.109 12.5218 24.109 13.1321V20.3226C24.109 21.0159 23.4564 21.5243 22.7833 21.3555L18.5208 20.2866Z" fill="white"></path><path d="M21.3106 20.9881C21.124 20.9404 20.9911 20.7747 20.9846 20.5814L20.7992 15.09C20.7455 14.3633 20.2081 13.7852 19.6465 13.615C19.615 13.6055 19.5813 13.6183 19.5626 13.6456C19.5437 13.6732 19.551 13.7115 19.5775 13.7321C19.7161 13.8399 20.0978 14.1916 20.0978 14.7982L20.0967 20.6793L21.3106 20.9881Z" fill="#0077FF"></path><path d="M25.323 19.331C25.1365 19.2842 25.0035 19.119 24.997 18.9261L24.8115 13.4351C24.7578 12.7083 24.2204 12.1303 23.6588 11.9601C23.6273 11.9505 23.5936 11.9634 23.575 11.9906C23.556 12.0183 23.5633 12.0566 23.5898 12.0772C23.7285 12.1849 24.1102 12.5366 24.1102 13.1432L24.109 19.0263L25.323 19.331Z" fill="#0077FF"></path><path d="M44.4699 21.6494C46.1355 21.2231 47.23 19.9442 47.23 18.2707C47.23 16.2024 45.5801 14.7499 43.2642 14.7499H39.1399V25.8807H41.0434V21.7915H42.3919L45.3422 25.8807H47.5789L44.4699 21.6494ZM43.2642 16.4866C44.4539 16.4866 45.279 17.2129 45.279 18.2707C45.279 19.3285 44.4539 20.0548 43.2642 20.0548H41.0434V16.4866H43.2642Z" fill="white"></path><path d="M51.8633 26.0386C52.8626 26.0386 53.7826 25.5175 54.3062 24.6492L54.6709 25.8807H56.0353V17.6707H54.211V22.423C54.211 23.5914 53.4337 24.4124 52.3709 24.4124C51.3239 24.4124 50.5941 23.5914 50.5941 22.423V17.6707H48.77V22.6283C48.77 24.6018 50.1025 26.0386 51.8633 26.0386Z" fill="white"></path><path d="M61.857 26.0386C63.9667 26.0386 65.7118 24.8386 65.7118 22.8493C65.7118 20.6231 63.8875 19.9758 62.3171 19.439C61.0957 19.0285 60.0329 18.6496 60.0329 17.6549C60.0329 16.7866 60.8417 16.3287 61.7935 16.3287C62.793 16.3287 63.5068 16.8497 63.9035 17.7339L65.7118 17.4339C65.1407 15.6972 63.697 14.592 61.7303 14.592C59.6997 14.592 58.0816 15.7603 58.0816 17.7497C58.0816 19.9916 59.9059 20.6073 61.4763 21.1284C62.682 21.5231 63.7605 21.902 63.7605 22.9125C63.7605 23.7966 62.9517 24.3018 61.873 24.3018C60.6355 24.3018 59.9694 23.7177 59.3826 22.6598L57.5422 22.9756C58.0816 24.8544 59.795 26.0386 61.857 26.0386Z" fill="white"></path><path d="M70.6743 24.3018C70.0557 24.3018 69.7543 24.0018 69.7543 23.3861V19.2495H72.213V17.6707H69.7543V15.3024H68.3901L67.93 17.6707H66.5818V19.2495H67.93V23.3861C67.93 24.9965 68.866 25.8807 70.6743 25.8807H72.213L72.3717 24.3018H70.6743Z" fill="white"></path><path d="M77.5848 26.0386C80.1704 26.0386 81.9945 24.2703 81.9945 21.7757C81.9945 19.2811 80.1704 17.5128 77.5848 17.5128C74.9991 17.5128 73.1748 19.2811 73.1748 21.7757C73.1748 24.2703 74.9991 26.0386 77.5848 26.0386ZM77.5848 24.3808C76.0936 24.3808 75.0784 23.323 75.0784 21.7757C75.0784 20.2284 76.0936 19.1706 77.5848 19.1706C79.0759 19.1706 80.0909 20.2284 80.0909 21.7757C80.0909 23.323 79.0759 24.3808 77.5848 24.3808Z" fill="white"></path><path d="M85.4048 25.8807V21.0336C85.4048 19.9916 85.9124 19.4074 87.0229 19.4074H88.0699L87.9112 17.6707H87.5623C86.5945 17.6707 85.8489 17.9391 85.2938 18.8549L84.9449 17.6707H83.5807V25.8807H85.4048Z" fill="white"></path><path d="M97.0459 21.681C97.0459 19.3127 95.2693 17.5128 92.7629 17.5128C90.2567 17.5128 88.4799 19.2969 88.4799 21.7757C88.4799 24.2545 90.2567 26.0386 92.7629 26.0386C94.4762 26.0386 96.0941 25.2334 96.7129 23.6703L94.9996 23.3861C94.6032 23.9703 93.8416 24.3808 92.8741 24.3808C91.4782 24.3808 90.5581 23.5282 90.3834 22.2651H97.0141C97.0301 22.0915 97.0459 21.902 97.0459 21.681ZM92.7629 19.0917C93.9051 19.0917 94.7616 19.8179 95.0631 20.8442H90.4946C90.7961 19.7864 91.6526 19.0917 92.7629 19.0917Z" fill="white"></path><path d="M39.2941 11.96V10.3526H39.3987C39.5344 10.3526 39.643 10.3192 39.7244 10.2525C39.8058 10.1858 39.8737 10.0523 39.9279 9.85213C39.9861 9.64801 40.0307 9.34772 40.0617 8.95126L40.2303 6.76093H42.8123V10.3526H43.4113V11.96H42.8123V10.912H39.893V11.96H39.2941ZM42.2134 10.3526V7.32029H40.7828L40.6607 8.9807C40.6141 9.64408 40.494 10.1014 40.3001 10.3526H42.2134Z" fill="white"></path><path d="M45.3154 10.9708C45.0091 10.9708 44.7358 10.9041 44.4954 10.7707C44.255 10.6372 44.067 10.4507 43.9313 10.2113C43.7956 9.97185 43.7278 9.69904 43.7278 9.39286C43.7278 9.08669 43.7956 8.81387 43.9313 8.57443C44.067 8.33498 44.255 8.14853 44.4954 8.01507C44.7358 7.87768 45.0091 7.80899 45.3154 7.80899C45.6216 7.80899 45.895 7.87768 46.1353 8.01507C46.3757 8.14853 46.5637 8.33498 46.6994 8.57443C46.8351 8.81387 46.9029 9.08669 46.9029 9.39286C46.9029 9.69904 46.8351 9.97185 46.6994 10.2113C46.5637 10.4507 46.3757 10.6372 46.1353 10.7707C45.895 10.9041 45.6216 10.9708 45.3154 10.9708ZM45.3154 10.4409C45.61 10.4409 45.8484 10.3448 46.0306 10.1524C46.2167 9.96007 46.3098 9.70689 46.3098 9.39286C46.3098 9.07883 46.2167 8.82565 46.0306 8.63331C45.8484 8.43704 45.61 8.33891 45.3154 8.33891C45.0207 8.33891 44.7823 8.43704 44.6001 8.63331C44.4179 8.82565 44.3268 9.07883 44.3268 9.39286C44.3268 9.70296 44.4179 9.95615 44.6001 10.1524C44.7823 10.3448 45.0207 10.4409 45.3154 10.4409Z" fill="white"></path><path d="M48.8981 10.9708C48.5996 10.9708 48.3302 10.9041 48.0898 10.7707C47.8533 10.6333 47.6692 10.4449 47.5374 10.2054C47.4055 9.96596 47.3396 9.69511 47.3396 9.39286C47.3396 9.08669 47.4055 8.81387 47.5374 8.57443C47.6692 8.33498 47.8533 8.14853 48.0898 8.01507C48.3263 7.87768 48.5957 7.80899 48.8981 7.80899C49.2199 7.80899 49.5068 7.8875 49.7588 8.04451C50.0147 8.20152 50.1969 8.42723 50.3054 8.72163L49.7704 8.80995C49.7007 8.66864 49.5902 8.5548 49.439 8.46845C49.2916 8.38209 49.123 8.33891 48.933 8.33891C48.6384 8.33891 48.398 8.43704 48.2119 8.63331C48.0297 8.82958 47.9386 9.08276 47.9386 9.39286C47.9386 9.70296 48.0297 9.95615 48.2119 10.1524C48.398 10.3448 48.6384 10.4409 48.933 10.4409C49.1308 10.4409 49.3052 10.3958 49.4564 10.3055C49.6115 10.2152 49.7239 10.0955 49.7937 9.94633L50.3287 10.0347C50.2202 10.333 50.0341 10.5646 49.7704 10.7294C49.5107 10.8904 49.2199 10.9708 48.8981 10.9708Z" fill="white"></path><path d="M52.0882 10.912H51.5183V8.39779H50.4774V7.86787H53.1292V8.39779H52.0882V10.912Z" fill="white"></path><path d="M55.8215 7.86787H56.4089L55.1528 11.3712C55.0597 11.6342 54.9376 11.8246 54.7864 11.9424C54.6352 12.0601 54.4336 12.119 54.1816 12.119H53.7338L53.6815 11.5891H54.2165C54.3289 11.5891 54.4162 11.5636 54.4782 11.5125C54.5402 11.4654 54.5926 11.381 54.6352 11.2594L54.6992 11.0827L53.3617 7.86787H53.9723L54.926 10.2172H55.0074L55.8215 7.86787Z" fill="white"></path><path d="M57.4941 10.912H56.9242V7.86787H59.483V10.912H58.9131V8.39779H57.4941V10.912Z" fill="white"></path><path d="M62.2871 9.11024V7.86787H62.857V10.912H62.2871V9.64016H60.8391V10.912H60.2692V7.86787H60.8391V9.11024H62.2871Z" fill="white"></path><path d="M65.0556 10.9708C64.7493 10.9708 64.476 10.9041 64.2357 10.7707C63.9953 10.6372 63.8073 10.4507 63.6716 10.2113C63.5359 9.97185 63.468 9.69904 63.468 9.39286C63.468 9.08669 63.5359 8.81387 63.6716 8.57443C63.8073 8.33498 63.9953 8.14853 64.2357 8.01507C64.476 7.87768 64.7493 7.80899 65.0556 7.80899C65.3619 7.80899 65.6352 7.87768 65.8756 8.01507C66.1159 8.14853 66.304 8.33498 66.4397 8.57443C66.5753 8.81387 66.6432 9.08669 66.6432 9.39286C66.6432 9.69904 66.5753 9.97185 66.4397 10.2113C66.304 10.4507 66.1159 10.6372 65.8756 10.7707C65.6352 10.9041 65.3619 10.9708 65.0556 10.9708ZM65.0556 10.4409C65.3503 10.4409 65.5887 10.3448 65.7709 10.1524C65.957 9.96007 66.05 9.70689 66.05 9.39286C66.05 9.07883 65.957 8.82565 65.7709 8.63331C65.5887 8.43704 65.3503 8.33891 65.0556 8.33891C64.761 8.33891 64.5225 8.43704 64.3403 8.63331C64.1581 8.82565 64.067 9.07883 64.067 9.39286C64.067 9.70296 64.1581 9.95615 64.3403 10.1524C64.5225 10.3448 64.761 10.4409 65.0556 10.4409Z" fill="white"></path><path d="M70.646 9.31632C70.8011 9.3752 70.9252 9.47137 71.0182 9.60483C71.1151 9.73437 71.1636 9.88745 71.1636 10.0641C71.1636 10.225 71.1171 10.3703 71.024 10.4998C70.9349 10.6293 70.8089 10.7314 70.646 10.806C70.4832 10.8766 70.2971 10.912 70.0878 10.912H68.6514V7.86787H70.0354C70.2331 7.86787 70.4095 7.9032 70.5646 7.97385C70.7197 8.04451 70.8399 8.14068 70.9252 8.26237C71.0143 8.38405 71.0589 8.5234 71.0589 8.68041C71.0589 8.82958 71.0221 8.95911 70.9484 9.06902C70.8786 9.17501 70.7778 9.25744 70.646 9.31632ZM69.2213 8.35657V9.10435H70.0354C70.1672 9.10435 70.2758 9.07098 70.3611 9.00425C70.4464 8.9336 70.489 8.84331 70.489 8.73341C70.489 8.6235 70.4464 8.53321 70.3611 8.46256C70.2758 8.3919 70.1672 8.35657 70.0354 8.35657H69.2213ZM70.0878 10.4233C70.239 10.4233 70.3611 10.384 70.4541 10.3055C70.5472 10.227 70.5937 10.1249 70.5937 9.99933C70.5937 9.87371 70.5472 9.77166 70.4541 9.69315C70.3611 9.61464 70.239 9.57539 70.0878 9.57539H69.2213V10.4233H70.0878Z" fill="white"></path></g></g><rect x="0.183908" y="0.183908" width="106.299" height="31.6322" rx="1.65517" stroke="#A6A6A6" stroke-width="0.367816"></rect><defs><clipPath id="clip0_19390_4547"><rect width="106.667" height="32" rx="1.83908" fill="white"></rect></clipPath><clipPath id="clip1_19390_4547"><rect width="87.2296" height="22.08" fill="white" transform="translate(9.81335 5.02399)"></rect></clipPath></defs></svg>