<svg width="90" height="28" viewBox="0 0 90 28" fill="none" xmlns="http://www.w3.org/2000/svg"><path d="M89.8141 17.4804V21.1173C89.8141 23.3333 89.2666 25.041 88.1717 26.2402C87.1028 27.4134 85.5124 28 83.4007 28C81.289 28 79.6856 27.4134 78.5907 26.2402C77.5218 25.041 76.9873 23.3333 76.9873 21.1173V6.88268C76.9873 4.66666 77.5218 2.97206 78.5907 1.79888C79.6856 0.599626 81.289 0 83.4007 0C85.5124 0 87.1028 0.599626 88.1717 1.79888C89.2666 2.97206 89.8141 4.66666 89.8141 6.88268V9.5419H85.7471V6.60894C85.7471 5.61825 85.5385 4.92737 85.1214 4.53631C84.7303 4.11918 84.1959 3.91061 83.518 3.91061C82.8402 3.91061 82.2927 4.11918 81.8756 4.53631C81.4845 4.92737 81.289 5.61825 81.289 6.60894V21.3911C81.289 22.3818 81.4845 23.0726 81.8756 23.4637C82.2927 23.8547 82.8402 24.0503 83.518 24.0503C84.1959 24.0503 84.7303 23.8547 85.1214 23.4637C85.5385 23.0726 85.7471 22.3818 85.7471 21.3911V17.4804H89.8141Z" fill="#FF3000"></path><path d="M65.0323 27.6868H60.6133V0.3125H64.4457V16.698L68.8647 0.3125H74.2613V27.6868H70.3898V7.85999L65.0323 27.6868Z" fill="#FF3000"></path><path d="M51.2563 0.3125C53.4984 0.3125 55.1147 0.833916 56.1054 1.87675C57.1222 2.91958 57.6306 4.49686 57.6306 6.60859V7.58624C57.6306 8.99407 57.409 10.1542 56.9658 11.0667C56.5226 11.9792 55.8186 12.657 54.854 13.1002C56.0272 13.5434 56.8484 14.2734 57.3177 15.2902C57.8131 16.2808 58.0607 17.5062 58.0607 18.9661V21.1952C58.0607 23.3069 57.5133 24.9233 56.4183 26.0443C55.3233 27.1393 53.6939 27.6868 51.53 27.6868H44.7646V0.3125H51.2563ZM49.0663 15.3684V23.7762H51.53C52.26 23.7762 52.8075 23.5807 53.1725 23.1896C53.5635 22.7985 53.7591 22.0946 53.7591 21.0779V18.6924C53.7591 17.4149 53.5375 16.5416 53.0943 16.0723C52.6771 15.603 51.9732 15.3684 50.9825 15.3684H49.0663ZM49.0663 4.22312V11.4578H50.7479C51.5561 11.4578 52.1818 11.2492 52.625 10.8321C53.0943 10.4149 53.3289 9.65887 53.3289 8.5639V7.03876C53.3289 6.04807 53.1464 5.33112 52.7814 4.88792C52.4425 4.44472 51.895 4.22312 51.1389 4.22312H49.0663Z" fill="#FF3000"></path><path d="M36.3967 0.3125C38.5606 0.3125 40.1639 0.886057 41.2068 2.03317C42.2757 3.18028 42.8101 4.86185 42.8101 7.07787V10.6365C42.8101 12.8525 42.2757 14.5341 41.2068 15.6812C40.1639 16.8283 38.5606 17.4019 36.3967 17.4019H34.3632V27.6868H30.0615V0.3125H36.3967ZM34.3632 4.22312V13.4913H36.3967C37.0746 13.4913 37.596 13.3088 37.961 12.9438C38.326 12.5788 38.5085 11.901 38.5085 10.9103V6.80412C38.5085 5.81343 38.326 5.13559 37.961 4.7706C37.596 4.40561 37.0746 4.22312 36.3967 4.22312H34.3632Z" fill="#FF3000"></path><path d="M20.081 11.8488H25.986V15.7594H20.081V23.7762H27.5111V27.6868H15.7793V0.3125H27.5111V4.22312H20.081V11.8488Z" fill="#FF3000"></path><path d="M13.0534 17.4804V21.1173C13.0534 23.3333 12.5059 25.041 11.4109 26.2402C10.342 27.4134 8.7517 28 6.63997 28C4.52824 28 2.92489 27.4134 1.82991 26.2402C0.761013 25.041 0.226562 23.3333 0.226562 21.1173V6.88268C0.226562 4.66666 0.761013 2.97206 1.82991 1.79888C2.92489 0.599626 4.52824 0 6.63997 0C8.7517 0 10.342 0.599626 11.4109 1.79888C12.5059 2.97206 13.0534 4.66666 13.0534 6.88268V9.5419H8.98634V6.60894C8.98634 5.61825 8.77777 4.92737 8.36064 4.53631C7.96958 4.11918 7.43513 3.91061 6.75729 3.91061C6.07945 3.91061 5.53196 4.11918 5.11483 4.53631C4.72377 4.92737 4.52824 5.61825 4.52824 6.60894V21.3911C4.52824 22.3818 4.72377 23.0726 5.11483 23.4637C5.53196 23.8547 6.07945 24.0503 6.75729 24.0503C7.43513 24.0503 7.96958 23.8547 8.36064 23.4637C8.77777 23.0726 8.98634 22.3818 8.98634 21.3911V17.4804H13.0534Z" fill="#FF3000"></path></svg>