<svg xmlns="http://www.w3.org/2000/svg" width="22" height="22" viewBox="0 0 22 22" fill="none" data-ab-filters-channel="d38b6f61-8522-4a1d-a7e0-11b3ea2c0f25">
<path d="M5.02296 20.7053C5.02296 21.4233 5.60499 22.0053 6.32296 22.0053C7.04093 22.0053 7.62296 21.4233 7.62296 20.7053H5.02296ZM1.32141 10.0487V8.74866C0.603441 8.74866 0.0214112 9.33069 0.0214112 10.0487H1.32141ZM9.83031 1.80248L8.64236 1.2745C8.63953 1.28086 8.63675 1.28725 8.63403 1.29366L9.83031 1.80248ZM13.3004 8.11109H12.0004V9.41109H13.3004V8.11109ZM20.182 11.4594L21.4669 11.6571L20.182 11.4594ZM1.32141 20.7053H0.0214112C0.0214112 21.4233 0.603441 22.0053 1.32141 22.0053L1.32141 20.7053ZM19.1387 18.2409L17.8538 18.0432L19.1387 18.2409ZM7.62296 20.7053V10.0487H5.02296V20.7053H7.62296ZM16.2661 19.4053H1.32141V22.0053H16.2661V19.4053ZM18.8971 11.2617L17.8538 18.0432L20.4236 18.4386L21.4669 11.6571L18.8971 11.2617ZM13.3004 9.41109H17.3094V6.81109H13.3004V9.41109ZM12.0004 3.71846V8.11109H14.6004V3.71846H12.0004ZM7.51925 10.5575L11.0266 2.31129L8.63403 1.29366L5.12667 9.53985L7.51925 10.5575ZM2.62141 20.7053V10.0487H0.0214112V20.7053H2.62141ZM1.32141 11.3487H6.32296V8.74866H1.32141V11.3487ZM10.558 0.0295899C9.72954 0.0295899 8.97882 0.517467 8.64236 1.2745L11.0183 2.33046C10.9374 2.51236 10.757 2.62959 10.558 2.62959V0.0295899ZM14.6004 3.71846C14.6004 2.57241 13.9862 1.63665 13.2544 1.02906C12.5232 0.422057 11.5495 0.0295899 10.558 0.0295899V2.62959C10.8858 2.62959 11.2833 2.77189 11.5936 3.02949C11.9031 3.2865 12.0004 3.54517 12.0004 3.71846H14.6004ZM21.4669 11.6571C21.8589 9.10902 19.8875 6.81109 17.3094 6.81109V9.41109C18.294 9.41109 19.0468 10.2886 18.8971 11.2617L21.4669 11.6571ZM16.2661 22.0053C18.3423 22.0053 20.1079 20.4906 20.4236 18.4386L17.8538 18.0432C17.7333 18.8268 17.059 19.4053 16.2661 19.4053V22.0053Z" fill="#1D1D1D"/>
</svg>