<svg width="32" height="32" viewBox="0 0 32 32" fill="none" xmlns="http://www.w3.org/2000/svg"><path fill-rule="evenodd" clip-rule="evenodd" d="M10.669 2.666h10.667a8 8 0 0 1 8 8v10.666a8 8 0 0 1-8 8H10.669a8 8 0 0 1-8-8V10.665a8 8 0 0 1 8-8Zm10.668 20.032s-.377.922-1.384.482l-3.774-2.894-2.433 2.202s-.188.147-.398.063c0 0-.189-.02-.398-.713a664.71 664.71 0 0 1-1.363-4.424l-3.754-1.258s-.566-.21-.629-.65c-.063-.44.65-.692.65-.692l14.909-5.85s1.216-.546 1.237.356l-2.663 13.378Zm-.232-11.008c.02-.315-.504 0-.504 0l-8.24 5.242a.309.309 0 0 0-.126.356l.985 3.23c.063.188.336.167.378-.042l.23-1.971a.22.22 0 0 1 .105-.19c.797-.712 6.731-6.038 6.983-6.29.272-.293.189-.335.189-.335Z" fill="#fff"></path></svg>