<svg width="16" height="17" viewBox="0 0 16 17" fill="none" xmlns="http://www.w3.org/2000/svg"><path d="M8 13.834H3.467c-.747 0-1.12 0-1.406-.146a1.333 1.333 0 0 1-.582-.582c-.146-.286-.146-.659-.146-1.406V5.3c0-.746 0-1.12.146-1.405.127-.25.331-.455.582-.583.285-.145.659-.145 1.406-.145h.266c1.494 0 2.24 0 2.81.29.503.256.91.664 1.166 1.166.29.57.29 1.317.29 2.81m0 6.4v-6.4m0 6.4h4.534c.747 0 1.12 0 1.406-.145.25-.128.454-.332.582-.582.146-.286.146-.659.146-1.406V5.3c0-.746 0-1.12-.146-1.405a1.334 1.334 0 0 0-.582-.583c-.286-.145-.659-.145-1.406-.145h-.266c-1.494 0-2.24 0-2.811.29-.502.256-.91.664-1.165 1.166C8 5.193 8 5.94 8 7.433" stroke="#1D1D1D" stroke-width="1.2" stroke-linecap="round" stroke-linejoin="round"></path></svg>