<svg width="32" height="32" viewBox="0 0 32 32" fill="none" xmlns="http://www.w3.org/2000/svg"><path fill-rule="evenodd" clip-rule="evenodd" d="M3.74 6.666C2.67 8.522 2.67 11.014 2.67 15.999c0 4.984 0 7.477 1.072 9.333a8 8 0 0 0 2.928 2.928c1.856 1.072 4.349 1.072 9.333 1.072 4.985 0 7.477 0 9.334-1.072a8 8 0 0 0 2.928-2.928c1.072-1.856 1.072-4.349 1.072-9.333 0-4.985 0-7.477-1.072-9.333a8 8 0 0 0-2.928-2.929c-1.857-1.071-4.35-1.071-9.334-1.071s-7.477 0-9.333 1.071A8 8 0 0 0 3.74 6.666Zm3.929 4.333h1.944c.497 0 .684.217.87.756.952 2.77 2.555 5.191 3.214 5.191.248 0 .36-.114.36-.742v-2.863c-.044-.815-.329-1.168-.54-1.429-.13-.16-.232-.287-.232-.466 0-.218.186-.447.495-.447h3.056c.412 0 .555.22.555.715v3.852c0 .412.18.556.303.556.247 0 .453-.144.906-.597 1.4-1.566 2.39-3.976 2.39-3.976.123-.289.351-.55.846-.55h1.944c.588 0 .712.303.588.715-.23 1.052-2.288 4.004-2.581 4.42l-.035.05c-.206.33-.288.494 0 .865.101.142.318.355.566.597.255.25.543.532.773.804.835.94 1.465 1.732 1.64 2.279.16.548-.118.826-.673.826h-1.945c-.52 0-.783-.292-1.35-.923-.24-.267-.535-.595-.927-.987-1.153-1.113-1.648-1.257-1.936-1.257-.392 0-.509.11-.509.666v1.744c0 .479-.153.757-1.389.757-2.06 0-4.323-1.251-5.93-3.558-2.41-3.379-3.07-5.933-3.07-6.448 0-.289.111-.55.667-.55Z" fill="#fff"></path></svg>